<svg id="visual" viewBox="0 0 900 450" width="900" height="450" xmlns="http://www.w3.org/2000/svg" xmlns:xlink="http://www.w3.org/1999/xlink" version="1.1"><rect x="0" y="0" width="900" height="450" fill="#FFDCAB"></rect><path d="M0 364L15 364C30 364 60 364 90 364.7C120 365.3 150 366.7 180 363.7C210 360.7 240 353.3 270 356C300 358.7 330 371.3 360 383.7C390 396 420 408 450 414.8C480 421.7 510 423.3 540 424.2C570 425 600 425 630 415C660 405 690 385 720 382.3C750 379.7 780 394.3 810 392.3C840 390.3 870 371.7 885 362.3L900 353L900 0L885 0C870 0 840 0 810 0C780 0 750 0 720 0C690 0 660 0 630 0C600 0 570 0 540 0C510 0 480 0 450 0C420 0 390 0 360 0C330 0 300 0 270 0C240 0 210 0 180 0C150 0 120 0 90 0C60 0 30 0 15 0L0 0Z" fill="#ffdcab"></path><path d="M0 318L15 321.8C30 325.7 60 333.3 90 343.2C120 353 150 365 180 365C210 365 240 353 270 341.2C300 329.3 330 317.7 360 319C390 320.3 420 334.7 450 344C480 353.3 510 357.7 540 350.8C570 344 600 326 630 321.8C660 317.7 690 327.3 720 326.8C750 326.3 780 315.7 810 310.3C840 305 870 305 885 305L900 305L900 0L885 0C870 0 840 0 810 0C780 0 750 0 720 0C690 0 660 0 630 0C600 0 570 0 540 0C510 0 480 0 450 0C420 0 390 0 360 0C330 0 300 0 270 0C240 0 210 0 180 0C150 0 120 0 90 0C60 0 30 0 15 0L0 0Z" fill="#fad0a3"></path><path d="M0 283L15 289.2C30 295.3 60 307.7 90 317C120 326.3 150 332.7 180 324.3C210 316 240 293 270 291.2C300 289.3 330 308.7 360 313.2C390 317.7 420 307.3 450 308.2C480 309 510 321 540 322.2C570 323.3 600 313.7 630 315C660 316.3 690 328.7 720 328.2C750 327.7 780 314.3 810 307.2C840 300 870 299 885 298.5L900 298L900 0L885 0C870 0 840 0 810 0C780 0 750 0 720 0C690 0 660 0 630 0C600 0 570 0 540 0C510 0 480 0 450 0C420 0 390 0 360 0C330 0 300 0 270 0C240 0 210 0 180 0C150 0 120 0 90 0C60 0 30 0 15 0L0 0Z" fill="#f6c49b"></path><path d="M0 248L15 252.3C30 256.7 60 265.3 90 270.5C120 275.7 150 277.3 180 278C210 278.7 240 278.3 270 275.2C300 272 330 266 360 264.3C390 262.7 420 265.3 450 260.3C480 255.3 510 242.7 540 244.8C570 247 600 264 630 264.7C660 265.3 690 249.7 720 241C750 232.3 780 230.7 810 229.3C840 228 870 227 885 226.5L900 226L900 0L885 0C870 0 840 0 810 0C780 0 750 0 720 0C690 0 660 0 630 0C600 0 570 0 540 0C510 0 480 0 450 0C420 0 390 0 360 0C330 0 300 0 270 0C240 0 210 0 180 0C150 0 120 0 90 0C60 0 30 0 15 0L0 0Z" fill="#f0b895"></path><path d="M0 200L15 199.8C30 199.7 60 199.3 90 203.2C120 207 150 215 180 219.3C210 223.7 240 224.3 270 227.2C300 230 330 235 360 228.2C390 221.3 420 202.7 450 195C480 187.3 510 190.7 540 190C570 189.3 600 184.7 630 187.5C660 190.3 690 200.7 720 212C750 223.3 780 235.7 810 238.7C840 241.7 870 235.3 885 232.2L900 229L900 0L885 0C870 0 840 0 810 0C780 0 750 0 720 0C690 0 660 0 630 0C600 0 570 0 540 0C510 0 480 0 450 0C420 0 390 0 360 0C330 0 300 0 270 0C240 0 210 0 180 0C150 0 120 0 90 0C60 0 30 0 15 0L0 0Z" fill="#eaac8f"></path><path d="M0 200L15 200.2C30 200.3 60 200.7 90 192.8C120 185 150 169 180 159.2C210 149.3 240 145.7 270 147.8C300 150 330 158 360 162.3C390 166.7 420 167.3 450 170.2C480 173 510 178 540 183.2C570 188.3 600 193.7 630 186C660 178.3 690 157.7 720 158.2C750 158.7 780 180.3 810 184.3C840 188.3 870 174.7 885 167.8L900 161L900 0L885 0C870 0 840 0 810 0C780 0 750 0 720 0C690 0 660 0 630 0C600 0 570 0 540 0C510 0 480 0 450 0C420 0 390 0 360 0C330 0 300 0 270 0C240 0 210 0 180 0C150 0 120 0 90 0C60 0 30 0 15 0L0 0Z" fill="#e3a08a"></path><path d="M0 100L15 106.8C30 113.7 60 127.3 90 131C120 134.7 150 128.3 180 129.5C210 130.7 240 139.3 270 139.5C300 139.7 330 131.3 360 126.8C390 122.3 420 121.7 450 121.2C480 120.7 510 120.3 540 118.8C570 117.3 600 114.7 630 119.3C660 124 690 136 720 133.2C750 130.3 780 112.7 810 106.2C840 99.7 870 104.3 885 106.7L900 109L900 0L885 0C870 0 840 0 810 0C780 0 750 0 720 0C690 0 660 0 630 0C600 0 570 0 540 0C510 0 480 0 450 0C420 0 390 0 360 0C330 0 300 0 270 0C240 0 210 0 180 0C150 0 120 0 90 0C60 0 30 0 15 0L0 0Z" fill="#dc9586"></path><path d="M0 101L15 97.2C30 93.3 60 85.7 90 81.7C120 77.7 150 77.3 180 82.3C210 87.3 240 97.7 270 102.2C300 106.7 330 105.3 360 102.3C390 99.3 420 94.7 450 87C480 79.3 510 68.7 540 64.3C570 60 600 62 630 71.3C660 80.7 690 97.3 720 101C750 104.7 780 95.3 810 90C840 84.7 870 83.3 885 82.7L900 82L900 0L885 0C870 0 840 0 810 0C780 0 750 0 720 0C690 0 660 0 630 0C600 0 570 0 540 0C510 0 480 0 450 0C420 0 390 0 360 0C330 0 300 0 270 0C240 0 210 0 180 0C150 0 120 0 90 0C60 0 30 0 15 0L0 0Z" fill="#d58a82"></path><path d="M0 71L15 64.7C30 58.3 60 45.7 90 42.5C120 39.3 150 45.7 180 47.8C210 50 240 48 270 50C300 52 330 58 360 62.8C390 67.7 420 71.3 450 69C480 66.7 510 58.3 540 57.8C570 57.3 600 64.7 630 63.5C660 62.3 690 52.7 720 48.2C750 43.7 780 44.3 810 45.3C840 46.3 870 47.7 885 48.3L900 49L900 0L885 0C870 0 840 0 810 0C780 0 750 0 720 0C690 0 660 0 630 0C600 0 570 0 540 0C510 0 480 0 450 0C420 0 390 0 360 0C330 0 300 0 270 0C240 0 210 0 180 0C150 0 120 0 90 0C60 0 30 0 15 0L0 0Z" fill="#cc7f7f"></path></svg>